<?xml version="1.0" encoding="utf-8"?>
<!-- Generator: Adobe Illustrator 21.1.0, SVG Export Plug-In . SVG Version: 6.00 Build 0)  -->
<svg version="1.1" id="Layer_1" xmlns="http://www.w3.org/2000/svg" xmlns:xlink="http://www.w3.org/1999/xlink" x="0px" y="0px"
	 viewBox="0 0 171 139" style="enable-background:new 0 0 171 139;" xml:space="preserve">
<style type="text/css">
	.st0{fill:#000000F;}
</style>
<g>
	<path class="st0" d="M171,16.5c-6.3,2.8-13.1,4.7-20.1,5.6c7.3-4.4,12.8-11.3,15.5-19.4c-6.8,4-14.3,7-22.3,8.5
		c-6.4-6.8-15.5-11.1-25.5-11.1C99,0.1,83.4,15.8,83.4,35.2c0,2.8,0.3,5.4,0.9,8C55,41.6,29.2,27.7,11.9,6.4
		c-3,5.2-4.8,11.3-4.8,17.6c0,12.2,6.2,22.9,15.7,29.2c-5.8-0.1-11.1-1.8-15.9-4.4v0.4c0,17.1,12.1,31.2,28.1,34.4
		c-2.9,0.8-6.1,1.2-9.3,1.2c-2.3,0-4.4-0.2-6.6-0.6c4.5,14,17.4,24,32.8,24.3c-12,9.4-27.1,15-43.6,15c-2.8,0-5.6-0.2-8.4-0.5
		c15.6,10,34,15.8,53.8,15.8c64.5,0,99.8-53.4,99.8-99.8l-0.1-4.6C160.4,29.7,166.3,23.6,171,16.5L171,16.5z"/>
</g>
</svg>
