<?xml version="1.0" encoding="utf-8"?>
<!-- Generator: Adobe Illustrator 21.1.0, SVG Export Plug-In . SVG Version: 6.00 Build 0)  -->
<svg version="1.1" id="Capa_1" xmlns="http://www.w3.org/2000/svg" xmlns:xlink="http://www.w3.org/1999/xlink" x="0px" y="0px"
	 viewBox="0 0 409 409" style="enable-background:new 0 0 409 409;" xml:space="preserve">
<style type="text/css">
	.st0{fill:#000000F;}
</style>
<path class="st0" d="M306.7,0H102.3C46,0,0,46,0,102.2v204.5C0,363,46,409,102.3,409h204.5C363,409,409,363,409,306.8V102.2
	C409,46,363,0,306.7,0z M374.9,306.8c0,37.6-30.6,68.2-68.2,68.2H102.3c-37.6,0-68.2-30.6-68.2-68.2V102.2
	c0-37.6,30.6-68.2,68.2-68.2h204.5c37.6,0,68.2,30.6,68.2,68.2L374.9,306.8L374.9,306.8z"/>
<circle class="st0" cx="315.3" cy="93.7" r="25.6"/>
<path class="st0" d="M204.5,102.2c-56.5,0-102.2,45.8-102.2,102.2c0,56.5,45.8,102.3,102.2,102.3c56.5,0,102.2-45.8,102.2-102.3
	C306.7,148,261,102.2,204.5,102.2z M204.5,272.7c-37.6,0-68.2-30.5-68.2-68.2s30.5-68.2,68.2-68.2s68.2,30.5,68.2,68.2
	S242.1,272.7,204.5,272.7z"/>
</svg>
