<svg xmlns="http://www.w3.org/2000/svg" width="27.466" height="27.497" viewBox="0 0 27.466 27.497">
  <path id="Icon_feather-phone" data-name="Icon feather-phone" d="M24.814,19.239V22.5a2.177,2.177,0,0,1-2.373,2.177,21.54,21.54,0,0,1-9.393-3.341,21.224,21.224,0,0,1-6.53-6.53A21.54,21.54,0,0,1,3.177,5.373,2.177,2.177,0,0,1,5.343,3H8.608a2.177,2.177,0,0,1,2.177,1.872,13.975,13.975,0,0,0,.762,3.058,2.177,2.177,0,0,1-.49,2.3L9.674,11.609a17.415,17.415,0,0,0,6.53,6.53l1.382-1.382a2.177,2.177,0,0,1,2.3-.49,13.975,13.975,0,0,0,3.058.762,2.177,2.177,0,0,1,1.872,2.209Z" transform="translate(3.507 -3.071) rotate(14)" fill="none" stroke="#fff" stroke-linecap="round" stroke-linejoin="round" stroke-width="1"/>
</svg>
